# xmcd
#
# Track frame offsets:
#	150
#	20105
#	39702
#	60315
#	89665
#	104260
#	121982
#	143172
#	160260
#	179430
#
# Disc length: 2608 seconds
#
# Revision: 1
# Processed by: cddbd v1.4PL0 Copyright (c) Steve Scherf et al.
# Submitted via: audiograbber 1.80
#
DISCID=880a2e0a
DTITLE=Randy McAllister - Givers And Takers
DYEAR=1900
DGENRE=
TTITLE0=Brother Bob's Church And Casino
TTITLE1=The Collector
TTITLE2=Scrapper And A Fighter
TTITLE3=Different
TTITLE4=When I Get Home
TTITLE5=Soulduster
TTITLE6=Esperanza
TTITLE7=Feeding Fat Cats
TTITLE8=Bigger With A Trigger
TTITLE9=Straight Down The Middle Chair
EXTD=
EXTT0=
EXTT1=
EXTT2=
EXTT3=
EXTT4=
EXTT5=
EXTT6=
EXTT7=
EXTT8=
EXTT9=
PLAYORDER=
